<svg width="67" height="67" viewBox="0 0 67 67" fill="none" xmlns="http://www.w3.org/2000/svg">
<path d="M8.37514 66.9998H58.6251C59.3655 66.9998 60.0756 66.7057 60.5991 66.1821C61.1227 65.6586 61.4168 64.9485 61.4168 64.2081V34.6583L62.232 35.4734C62.7554 35.9973 63.4655 36.2917 64.2061 36.292C64.9466 36.2922 65.657 35.9983 66.1808 35.4748C66.7046 34.9514 66.999 34.2413 66.9993 33.5007C66.9996 32.7602 66.7056 32.0498 66.1822 31.526L35.4738 0.817642C34.9405 0.313266 34.2342 0.0322266 33.5001 0.0322266C32.766 0.0322266 32.0598 0.313266 31.5264 0.817642L0.818095 31.526C0.294738 32.0495 0.000732422 32.7595 0.000732422 33.4997C0.000732422 34.24 0.294738 34.9499 0.818095 35.4734C1.35116 35.9784 2.05751 36.2599 2.7918 36.2599C3.52609 36.2599 4.23245 35.9784 4.76551 35.4734L5.58347 34.6555V64.2081C5.58347 64.9485 5.87759 65.6586 6.40113 66.1821C6.92467 66.7057 7.63474 66.9998 8.37514 66.9998V66.9998ZM39.0835 61.4164H27.9168V50.2497C27.9168 48.769 28.505 47.3488 29.5521 46.3017C30.5992 45.2547 32.0193 44.6664 33.5001 44.6664C34.9809 44.6664 36.4011 45.2547 37.4481 46.3017C38.4952 47.3488 39.0835 48.769 39.0835 50.2497V61.4164ZM33.5001 6.73877L55.8335 29.0721V61.4164H44.6668V50.2497C44.6668 47.2882 43.4903 44.4479 41.3962 42.3537C39.302 40.2596 36.4617 39.0831 33.5001 39.0831C30.5386 39.0831 27.6983 40.2596 25.6041 42.3537C23.51 44.4479 22.3335 47.2882 22.3335 50.2497V61.4164H11.1668V29.0721L33.5001 6.73877Z" fill="#0A0A0C"/>
</svg>
