<svg width="37" height="23" viewBox="0 0 37 23" fill="none" xmlns="http://www.w3.org/2000/svg">
<path d="M10.25 18.4C10.25 19.2939 10.3497 19.8895 10.5371 20.3088C10.7065 20.6879 10.973 20.9811 11.4638 21.2251C11.9899 21.4868 12.773 21.6898 13.951 21.82C15.1198 21.9492 16.6065 22 18.5 22C20.3935 22 21.8802 21.9492 23.049 21.82C24.227 21.6898 25.0101 21.4868 25.5362 21.2251C26.027 20.9811 26.2935 20.6879 26.4629 20.3088C26.6503 19.8895 26.75 19.2939 26.75 18.4C26.75 17.5061 26.6503 16.9105 26.4629 16.4912C26.2935 16.1121 26.027 15.8189 25.5362 15.5749C25.0101 15.3132 24.227 15.1102 23.049 14.98C21.8802 14.8508 20.3935 14.8 18.5 14.8C16.6065 14.8 15.1198 14.8508 13.951 14.98C12.773 15.1102 11.9899 15.3132 11.4638 15.5749C10.973 15.8189 10.7065 16.1121 10.5371 16.4912C10.3497 16.9105 10.25 17.5061 10.25 18.4Z" stroke="#E0E0E0" stroke-width="2" stroke-linecap="round" stroke-linejoin="round"/>
<path d="M13.7188 5.75C13.7188 8.36825 15.8543 10.5 18.5 10.5C21.1457 10.5 23.2812 8.36825 23.2812 5.75C23.2812 3.13175 21.1457 1 18.5 1C15.8543 1 13.7188 3.13175 13.7188 5.75Z" stroke="#E0E0E0" stroke-width="2"/>
<path d="M26.5937 3.4502C28.675 3.4502 30.0625 5.1752 30.0625 6.9002C30.0625 8.62519 28.675 10.3502 26.5937 10.3502" stroke="#E0E0E0" stroke-width="2" stroke-linecap="round" stroke-linejoin="round"/>
<path d="M10.4063 3.4502C8.325 3.4502 6.9375 5.1752 6.9375 6.9002C6.9375 8.62519 8.325 10.3502 10.4063 10.3502" stroke="#E0E0E0" stroke-width="2" stroke-linecap="round" stroke-linejoin="round"/>
<path d="M30.7563 20.6998C33.9938 20.6998 35.8438 20.2069 35.8438 17.2498C35.8438 14.2927 33.9938 13.7998 28.9062 13.7998" stroke="#E0E0E0" stroke-width="2" stroke-linecap="round" stroke-linejoin="round"/>
<path d="M6.24375 20.6998C3.00625 20.6998 1.15625 20.2069 1.15625 17.2498C1.15625 14.2927 3.00625 13.7998 8.09375 13.7998" stroke="#E0E0E0" stroke-width="2" stroke-linecap="round" stroke-linejoin="round"/>
</svg>
