<svg width="66" height="62" viewBox="0 0 66 62" fill="none" xmlns="http://www.w3.org/2000/svg">
<rect y="6" width="56" height="56" rx="28" fill="#EFEFEF"/>
<path d="M36.4604 23.8489H19.3168C18.6474 23.8496 18.0057 24.1159 17.5323 24.5892C17.059 25.0625 16.7928 25.7043 16.792 26.3737V38.1562C16.7928 38.8256 17.059 39.4674 17.5323 39.9407C18.0057 40.4141 18.6474 40.6803 19.3168 40.6811C19.54 40.6812 19.754 40.7699 19.9118 40.9277C20.0696 41.0855 20.1583 41.2995 20.1585 41.5227V43.3168C20.1585 43.6215 20.2411 43.9204 20.3977 44.1818C20.5543 44.4431 20.7788 44.6571 21.0474 44.8009C21.316 44.9446 21.6186 45.0128 21.9229 44.9981C22.2273 44.9834 22.5219 44.8863 22.7754 44.7173L28.6173 40.8224C28.7554 40.7299 28.9179 40.6807 29.0841 40.6811H33.187C33.7383 40.68 34.2743 40.4994 34.7137 40.1664C35.1531 39.8335 35.472 39.3664 35.6222 38.8359L38.8965 27.0501C38.9999 26.6748 39.0152 26.2807 38.9413 25.8986C38.8675 25.5164 38.7064 25.1564 38.4707 24.8466C38.235 24.5369 37.9309 24.2857 37.5823 24.1126C37.2336 23.9396 36.8497 23.8493 36.4604 23.8489ZM37.2733 26.603L34.0006 38.3847C33.95 38.5614 33.8432 38.7168 33.6964 38.8275C33.5496 38.9381 33.3708 38.9979 33.187 38.9978H29.0841C28.5856 38.9972 28.0981 39.1448 27.6836 39.4219L21.8417 43.3168V41.5227C21.8409 40.8533 21.5747 40.2115 21.1014 39.7382C20.628 39.2648 19.9862 38.9986 19.3168 38.9978C19.0937 38.9977 18.8797 38.909 18.7219 38.7512C18.5641 38.5934 18.4754 38.3794 18.4752 38.1562V26.3737C18.4754 26.1505 18.5641 25.9365 18.7219 25.7787C18.8797 25.6209 19.0937 25.5322 19.3168 25.5321H36.4604C36.5905 25.5324 36.7188 25.5628 36.8352 25.6208C36.9517 25.6788 37.0532 25.7628 37.1318 25.8665C37.2105 25.9701 37.2641 26.0905 37.2887 26.2182C37.3132 26.346 37.3079 26.4777 37.2733 26.603Z" fill="#179A0F"/>
<path d="M21.8417 31.4235H26.0497C26.2729 31.4235 26.487 31.3348 26.6448 31.177C26.8027 31.0191 26.8913 30.8051 26.8913 30.5818C26.8913 30.3586 26.8027 30.1446 26.6448 29.9867C26.487 29.8289 26.2729 29.7402 26.0497 29.7402H21.8417C21.6185 29.7402 21.4044 29.8289 21.2466 29.9867C21.0887 30.1446 21.0001 30.3586 21.0001 30.5818C21.0001 30.8051 21.0887 31.0191 21.2466 31.177C21.4044 31.3348 21.6185 31.4235 21.8417 31.4235Z" fill="#179A0F"/>
<path d="M29.4162 33.1067H21.8417C21.6185 33.1067 21.4044 33.1954 21.2466 33.3532C21.0887 33.511 21.0001 33.7251 21.0001 33.9483C21.0001 34.1715 21.0887 34.3856 21.2466 34.5434C21.4044 34.7012 21.6185 34.7899 21.8417 34.7899H29.4162C29.6394 34.7899 29.8534 34.7012 30.0113 34.5434C30.1691 34.3856 30.2578 34.1715 30.2578 33.9483C30.2578 33.7251 30.1691 33.511 30.0113 33.3532C29.8534 33.1954 29.6394 33.1067 29.4162 33.1067Z" fill="#179A0F"/>
<circle cx="53" cy="13" r="11.5" fill="#FF2626" stroke="white" stroke-width="3"/>
</svg>
