<svg width="32" height="32" viewBox="0 0 32 32" fill="none" xmlns="http://www.w3.org/2000/svg">
<g clip-path="url(#clip0_48_6151)" filter="url(#filter0_d_48_6151)">
<path d="M25 0H7C6.20435 0 5.44129 0.31607 4.87868 0.87868C4.31607 1.44129 4 2.20435 4 3V21C4 21.7956 4.31607 22.5587 4.87868 23.1213C5.44129 23.6839 6.20435 24 7 24H25C25.7956 24 26.5587 23.6839 27.1213 23.1213C27.6839 22.5587 28 21.7956 28 21V3C28 2.20435 27.6839 1.44129 27.1213 0.87868C26.5587 0.31607 25.7956 0 25 0V0ZM7 2H25C25.2652 2 25.5196 2.10536 25.7071 2.29289C25.8946 2.48043 26 2.73478 26 3V14H6V3C6 2.73478 6.10536 2.48043 6.29289 2.29289C6.48043 2.10536 6.73478 2 7 2ZM25 22H7C6.73478 22 6.48043 21.8946 6.29289 21.7071C6.10536 21.5196 6 21.2652 6 21V16H26V21C26 21.2652 25.8946 21.5196 25.7071 21.7071C25.5196 21.8946 25.2652 22 25 22Z" fill="white" fill-opacity="0.8"/>
<path d="M13.513 11.8585C13.6645 11.9478 13.8371 11.9949 14.013 11.9949C14.1888 11.9949 14.3615 11.9478 14.513 11.8585L19.513 8.85854C19.6608 8.76964 19.7832 8.644 19.8681 8.49383C19.953 8.34366 19.9977 8.17407 19.9977 8.00154C19.9977 7.82902 19.953 7.65943 19.8681 7.50926C19.7832 7.35909 19.6608 7.23345 19.513 7.14454L14.513 4.14454C14.3615 4.05398 14.1887 4.00515 14.0122 4.003C13.8356 4.00086 13.6617 4.04548 13.508 4.13232C13.3543 4.21917 13.2264 4.34516 13.1371 4.49748C13.0479 4.64979 13.0006 4.82302 13 4.99954V10.9995C13.0012 11.1754 13.0494 11.3478 13.1396 11.4989C13.2298 11.6499 13.3587 11.7741 13.513 11.8585ZM15 6.76554L17.057 7.99954L15 9.23354V6.76554Z" fill="white" fill-opacity="0.8"/>
<path d="M11 18H9C8.73478 18 8.48043 18.1054 8.29289 18.2929C8.10536 18.4804 8 18.7348 8 19C8 19.2652 8.10536 19.5196 8.29289 19.7071C8.48043 19.8947 8.73478 20 9 20H11C11.2652 20 11.5196 19.8947 11.7071 19.7071C11.8946 19.5196 12 19.2652 12 19C12 18.7348 11.8946 18.4804 11.7071 18.2929C11.5196 18.1054 11.2652 18 11 18Z" fill="white" fill-opacity="0.8"/>
<path d="M23 18H15C14.7348 18 14.4804 18.1054 14.2929 18.2929C14.1054 18.4804 14 18.7348 14 19C14 19.2652 14.1054 19.5196 14.2929 19.7071C14.4804 19.8947 14.7348 20 15 20H23C23.2652 20 23.5196 19.8947 23.7071 19.7071C23.8946 19.5196 24 19.2652 24 19C24 18.7348 23.8946 18.4804 23.7071 18.2929C23.5196 18.1054 23.2652 18 23 18Z" fill="white" fill-opacity="0.8"/>
</g>
<defs>
<filter id="filter0_d_48_6151" x="0" y="0" width="30" height="32" filterUnits="userSpaceOnUse" color-interpolation-filters="sRGB">
<feFlood flood-opacity="0" result="BackgroundImageFix"/>
<feColorMatrix in="SourceAlpha" type="matrix" values="0 0 0 0 0 0 0 0 0 0 0 0 0 0 0 0 0 0 127 0" result="hardAlpha"/>
<feOffset dy="4"/>
<feGaussianBlur stdDeviation="2"/>
<feComposite in2="hardAlpha" operator="out"/>
<feColorMatrix type="matrix" values="0 0 0 0 0 0 0 0 0 0 0 0 0 0 0 0 0 0 0.25 0"/>
<feBlend mode="normal" in2="BackgroundImageFix" result="effect1_dropShadow_48_6151"/>
<feBlend mode="normal" in="SourceGraphic" in2="effect1_dropShadow_48_6151" result="shape"/>
</filter>
<clipPath id="clip0_48_6151">
<rect width="24" height="24" fill="white" transform="translate(4)"/>
</clipPath>
</defs>
</svg>
