<svg width="20" height="24" viewBox="0 0 20 24" fill="none" xmlns="http://www.w3.org/2000/svg">
<path d="M19 24H1C0.734784 24 0.48043 23.8946 0.292893 23.7071C0.105357 23.5196 0 23.2652 0 23V22.008C0.00287348 20.4622 0.520212 18.9613 1.47044 17.742C2.42066 16.5227 3.74971 15.6544 5.248 15.274C5.46045 15.2219 5.64959 15.1008 5.78571 14.9296C5.92182 14.7583 5.9972 14.5467 6 14.328V13.322L4.883 12.206C4.6032 11.9313 4.38099 11.6036 4.22937 11.2419C4.07776 10.8803 3.99978 10.4921 4 10.1V5.96201C4.01833 4.41693 4.62821 2.93765 5.70414 1.82861C6.78007 0.719572 8.24019 0.0651427 9.784 5.16174e-06C10.5992 -0.00104609 11.4067 0.158488 12.1603 0.469498C12.9139 0.780509 13.5989 1.2369 14.1761 1.81263C14.7533 2.38835 15.2114 3.07213 15.5244 3.82491C15.8373 4.5777 15.999 5.38476 16 6.20001V10.1C15.9997 10.4949 15.9204 10.8857 15.7666 11.2495C15.6129 11.6132 15.388 11.9426 15.105 12.218L14 13.322V14.328C14.0029 14.5469 14.0784 14.7586 14.2147 14.9298C14.351 15.1011 14.5404 15.2221 14.753 15.274C16.251 15.6548 17.5797 16.5232 18.5298 17.7424C19.4798 18.9617 19.997 20.4624 20 22.008V23C20 23.2652 19.8946 23.5196 19.7071 23.7071C19.5196 23.8946 19.2652 24 19 24ZM2 22H18C17.9954 20.8996 17.6249 19.8319 16.9469 18.9651C16.2689 18.0983 15.3219 17.4816 14.255 17.212C13.6125 17.0494 13.0423 16.6779 12.6341 16.1558C12.2259 15.6337 12.0028 14.9907 12 14.328V12.908C12.0001 12.6428 12.1055 12.3885 12.293 12.201L13.703 10.792C13.7965 10.7026 13.8711 10.5952 13.9221 10.4763C13.9731 10.3574 13.9996 10.2294 14 10.1V6.20001C14.0017 5.09492 13.5671 4.03383 12.7907 3.24737C12.0144 2.46092 10.959 2.01265 9.854 2.00001C8.82641 2.04117 7.85379 2.47507 7.1367 3.21225C6.41962 3.94943 6.01275 4.93367 6 5.96201V10.1C5.99979 10.2266 6.0249 10.352 6.07384 10.4688C6.12278 10.5856 6.19458 10.6914 6.285 10.78L7.707 12.2C7.89455 12.3875 7.99994 12.6418 8 12.907V14.327C7.99724 14.9896 7.77432 15.6325 7.3663 16.1545C6.95827 16.6766 6.3883 17.0482 5.746 17.211C4.67872 17.4804 3.73137 18.0972 3.05318 18.9642C2.37498 19.8313 2.00447 20.8993 2 22Z" fill="white" fill-opacity="0.8"/>
</svg>
 