<svg width="24" height="17" viewBox="0 0 24 17" fill="none" xmlns="http://www.w3.org/2000/svg">
<path d="M21.9972 16.2499L21.9994 16.2499C22.9545 16.2581 23.7381 15.4773 23.75 14.5042L23.75 2.5063C23.7462 2.03569 23.5589 1.58617 23.2297 1.2568C22.9014 0.928269 22.4589 0.746149 21.9972 0.750071L2.00064 0.750062C1.54109 0.746149 1.09858 0.928269 0.770279 1.2568C0.441145 1.58617 0.253838 2.03569 0.250008 2.50426L0.25 14.4937C0.253838 14.9643 0.441145 15.4138 0.770279 15.7432C1.09858 16.0717 1.54109 16.2538 2.00277 16.2499H21.9972ZM21.9962 16.7499C21.9958 16.7499 21.9955 16.7499 21.9951 16.7499L21.9972 16.7499H21.9962Z" fill="white" stroke="black" stroke-opacity="0.2" stroke-width="0.5"/>
<path d="M12.6123 16.4999H21.9971C22.5239 16.5043 23.0309 16.2993 23.4065 15.9299C23.7821 15.5605 23.9955 15.057 23.9999 14.5303V12.1716C20.4561 14.2059 16.6127 15.6668 12.6123 16.4999Z" fill="#F27712"/>
<path d="M23.1725 9.79643H22.32L21.3601 8.53023H21.269V9.79643H20.5738V6.65161H21.6C22.4028 6.65161 22.8663 6.98264 22.8663 7.5785C22.8663 8.06678 22.5766 8.38126 22.0552 8.48057L23.1725 9.79643ZM22.1463 7.60333C22.1463 7.29712 21.9145 7.13988 21.4842 7.13988H21.269V8.09161H21.4676C21.9145 8.09161 22.1463 7.92609 22.1463 7.60333ZM18.1407 6.65161H20.1104V7.18126H18.8359V7.88471H20.0607V8.42264H18.8359V9.27505H20.1104V9.80471H18.1407V6.65161ZM15.9063 9.87919L14.4001 6.64333H15.1614L16.1132 8.76195L17.0732 6.64333H17.818L16.2952 9.87919H15.9228H15.9063ZM9.60833 9.87092C8.54902 9.87092 7.72143 9.15092 7.72143 8.21574C7.72143 7.3054 8.56557 6.56885 9.62488 6.56885C9.92281 6.56885 10.1711 6.62678 10.4773 6.75919V7.48747C10.2454 7.25965 9.9334 7.13187 9.60833 7.13161C8.94626 7.13161 8.44143 7.61161 8.44143 8.21574C8.44143 8.85299 8.93798 9.30816 9.64143 9.30816C9.95591 9.30816 10.1959 9.20885 10.4773 8.96057V9.68885C10.1628 9.82126 9.89798 9.87092 9.60833 9.87092ZM7.50626 8.83643C7.50626 9.44885 7.00143 9.87092 6.27315 9.87092C5.7435 9.87092 5.36281 9.68885 5.04005 9.27505L5.49522 8.88609C5.65246 9.16747 5.91729 9.30816 6.24833 9.30816C6.56281 9.30816 6.78626 9.11781 6.78626 8.86954C6.78626 8.72885 6.72005 8.62126 6.57936 8.5385C6.4251 8.46365 6.26446 8.40271 6.09936 8.35643C5.44557 8.14954 5.22212 7.92609 5.22212 7.48747C5.22212 6.97436 5.70212 6.5854 6.33109 6.5854C6.72833 6.5854 7.08419 6.70954 7.38212 6.94126L7.01798 7.35505C6.87366 7.19683 6.66938 7.10671 6.45522 7.10678C6.15729 7.10678 5.94212 7.25574 5.94212 7.45436C5.94212 7.61988 6.06626 7.71092 6.48005 7.85161C7.27453 8.09988 7.50626 8.33161 7.50626 8.84471V8.83643ZM4.08833 6.65161H4.7835V9.80471H4.08833V6.65161ZM1.85384 9.80471H0.827637V6.65161H1.85384C2.97936 6.65161 3.75729 7.29712 3.75729 8.22402C3.75729 8.69574 3.52557 9.14264 3.12005 9.44057C2.77246 9.68885 2.3835 9.80471 1.84557 9.80471H1.85384ZM2.66488 7.43781C2.43315 7.25574 2.16833 7.18954 1.71315 7.18954H1.52281V9.27505H1.71315C2.16005 9.27505 2.44143 9.1923 2.66488 9.02678C2.90488 8.82816 3.04557 8.53023 3.04557 8.22402C3.04557 7.91781 2.90488 7.62816 2.66488 7.43781Z" fill="black"/>
<path d="M12.414 6.56885C11.5036 6.56885 10.7588 7.29712 10.7588 8.19919C10.7588 9.15919 11.4705 9.87919 12.414 9.87919C13.3409 9.87919 14.0691 9.15092 14.0691 8.22402C14.0691 7.29712 13.3491 6.56885 12.414 6.56885Z" fill="#F27712"/>
</svg>
