<svg width="24" height="17" viewBox="0 0 24 17" fill="none" xmlns="http://www.w3.org/2000/svg">
<path d="M22 0.5H2C0.89543 0.5 0 1.39543 0 2.5V14.5C0 15.6046 0.89543 16.5 2 16.5H22C23.1046 16.5 24 15.6046 24 14.5V2.5C24 1.39543 23.1046 0.5 22 0.5Z" fill="#252525"/>
<path d="M9 13.5C11.7614 13.5 14 11.2614 14 8.5C14 5.73858 11.7614 3.5 9 3.5C6.23858 3.5 4 5.73858 4 8.5C4 11.2614 6.23858 13.5 9 13.5Z" fill="#EB001B"/>
<path d="M15 13.5C17.7614 13.5 20 11.2614 20 8.5C20 5.73858 17.7614 3.5 15 3.5C12.2386 3.5 10 5.73858 10 8.5C10 11.2614 12.2386 13.5 15 13.5Z" fill="#F79E1B"/>
<path fill-rule="evenodd" clip-rule="evenodd" d="M12 4.49951C13.2144 5.41172 14 6.86406 14 8.49988C14 10.1357 13.2144 11.588 12 12.5002C10.7856 11.588 10 10.1357 10 8.49988C10 6.86406 10.7856 5.41172 12 4.49951Z" fill="#FF5F00"/>
</svg>
