<svg width="24" height="17" viewBox="0 0 24 17" fill="none" xmlns="http://www.w3.org/2000/svg">
<path d="M22 0.5H2C0.89543 0.5 0 1.39543 0 2.5V14.5C0 15.6046 0.89543 16.5 2 16.5H22C23.1046 16.5 24 15.6046 24 14.5V2.5C24 1.39543 23.1046 0.5 22 0.5Z" fill="#016FD0"/>
<path fill-rule="evenodd" clip-rule="evenodd" d="M13.7642 13.8938V8.19238L23.9117 8.20149V9.77638L22.7388 11.0298L23.9117 12.2947V13.903H22.0391L21.0439 12.8048L20.0558 13.9071L13.7642 13.8938Z" fill="#FFFFFE"/>
<path fill-rule="evenodd" clip-rule="evenodd" d="M14.4419 13.2687V8.81982H18.2142V9.84471H15.6633V10.5404H18.1534V11.5482H15.6633V12.2315H18.2142V13.2687H14.4419Z" fill="#016FD0"/>
<path fill-rule="evenodd" clip-rule="evenodd" d="M18.1954 13.2689L20.2827 11.0419L18.1953 8.82007H19.811L21.0865 10.2301L22.3656 8.82007H23.9117V8.85507L21.8689 11.0419L23.9117 13.2057V13.2689H22.35L21.0519 11.8447L19.7671 13.2689H18.1954Z" fill="#016FD0"/>
<path fill-rule="evenodd" clip-rule="evenodd" d="M14.2374 3.13184H16.6834L17.5426 5.08269V3.13184H20.5624L21.0832 4.59341L21.6057 3.13184H23.9116V8.83323H11.7251L14.2374 3.13184Z" fill="#FFFFFE"/>
<path fill-rule="evenodd" clip-rule="evenodd" d="M14.7006 3.75146L12.7266 8.19664H14.0805L14.4529 7.30647H16.4708L16.843 8.19664H18.2306L16.2648 3.75146H14.7006ZM14.8702 6.3089L15.4622 4.89383L16.0538 6.3089H14.8702Z" fill="#016FD0"/>
<path fill-rule="evenodd" clip-rule="evenodd" d="M18.2119 8.19582V3.75073L20.115 3.75727L21.0943 6.49L22.0799 3.75073H23.9115V8.19582L22.7329 8.20625V5.1529L21.6204 8.19582H20.5446L19.4089 5.14247V8.19582H18.2119Z" fill="#016FD0"/>
</svg>
