<svg width="24" height="24" viewBox="0 0 24 24" fill="none" xmlns="http://www.w3.org/2000/svg">
<g clip-path="url(#clip0_51_6273)">
<path d="M12 23.9995C14.5252 23.9971 16.9727 23.1259 18.9315 21.5322C20.8903 19.9385 22.2411 17.7193 22.7572 15.2474C23.2732 12.7755 22.923 10.2012 21.7654 7.95698C20.6078 5.71271 18.7133 3.93506 16.4 2.92252C16.2795 2.86918 16.1496 2.84017 16.0179 2.83717C15.8862 2.83417 15.7552 2.85724 15.6324 2.90504C15.5096 2.95284 15.3975 3.02443 15.3024 3.11571C15.2074 3.20699 15.1313 3.31614 15.0786 3.43691C15.0259 3.55767 14.9976 3.68766 14.9953 3.81941C14.993 3.95115 15.0167 4.08205 15.0652 4.20459C15.1136 4.32713 15.1858 4.43888 15.2776 4.53343C15.3694 4.62797 15.4789 4.70345 15.6 4.75552C17.495 5.58259 19.0475 7.03694 19.9963 8.87403C20.9452 10.7111 21.2326 12.8189 20.8101 14.8429C20.3877 16.867 19.2812 18.6839 17.6767 19.988C16.0722 21.2922 14.0676 22.0042 12 22.0042C9.93231 22.0042 7.9277 21.2922 6.32322 19.988C4.71875 18.6839 3.61226 16.867 3.18981 14.8429C2.76737 12.8189 3.05474 10.7111 4.00359 8.87403C4.95245 7.03694 6.50493 5.58259 8.39997 4.75552C8.52101 4.70345 8.63057 4.62797 8.72234 4.53343C8.81412 4.43888 8.88631 4.32713 8.93475 4.20459C8.9832 4.08205 9.00695 3.95115 9.00465 3.81941C9.00234 3.68766 8.97402 3.55767 8.92131 3.43691C8.86861 3.31614 8.79255 3.20699 8.69752 3.11571C8.60249 3.02443 8.49036 2.95284 8.36757 2.90504C8.24478 2.85724 8.11376 2.83417 7.98203 2.83717C7.8503 2.84017 7.72046 2.86918 7.59997 2.92252C5.28663 3.93506 3.39211 5.71271 2.23451 7.95698C1.07691 10.2012 0.726727 12.7755 1.24277 15.2474C1.7588 17.7193 3.10963 19.9385 5.06844 21.5322C7.02725 23.1259 9.47474 23.9971 12 23.9995Z" fill="white" fill-opacity="0.8"/>
<path d="M12 10C12.2652 10 12.5196 9.89464 12.7071 9.70711C12.8947 9.51957 13 9.26522 13 9V1C13 0.734784 12.8947 0.48043 12.7071 0.292893C12.5196 0.105357 12.2652 0 12 0C11.7348 0 11.4804 0.105357 11.2929 0.292893C11.1054 0.48043 11 0.734784 11 1V9C11 9.26522 11.1054 9.51957 11.2929 9.70711C11.4804 9.89464 11.7348 10 12 10Z" fill="white" fill-opacity="0.8"/>
</g>
<defs>
<clipPath id="clip0_51_6273">
<rect width="24" height="24" fill="white"/>
</clipPath>
</defs>
</svg>
