<svg width="24" height="24" viewBox="0 0 24 24" fill="none" xmlns="http://www.w3.org/2000/svg">
<path fill-rule="evenodd" clip-rule="evenodd" d="M10.5034 8.72781L3.51845 2.0675L12.0731 3.33838C13.9409 3.61586 15.549 4.83157 16.3287 6.55765L18.8537 12.4844L15.8089 15.5265L12.4738 18.802L6.57999 16.2961C4.85162 15.5169 3.63518 13.9103 3.35748 12.0453L2.07886 3.4583L9.12317 10.1753C9.52287 10.5564 10.1559 10.5413 10.537 10.1416C10.9181 9.74193 10.9031 9.10894 10.5034 8.72781ZM11.9007 20.7315L5.78792 18.1326L5.76974 18.1247C3.41749 17.069 1.75828 14.8851 1.37928 12.3398L0.0818113 3.62618C-0.0711747 2.59875 0.285846 1.63799 0.937862 0.971195C1.60665 0.287247 2.59066 -0.0922844 3.64528 0.0643906L12.367 1.36009C14.9136 1.73841 17.0996 3.39544 18.1567 5.74608L18.1647 5.76428L20.9585 12.3222C20.9739 12.3584 20.9871 12.3951 20.998 12.4322L21.5587 12.9829L21.6062 13.0296C22.264 13.6755 22.8284 14.2297 23.2192 14.7328C23.6367 15.2702 23.9533 15.8682 23.9533 16.6066C23.9533 17.3449 23.6367 17.9429 23.2192 18.4803C22.8284 18.9834 22.2641 19.5375 21.6063 20.1834L21.6063 20.1835L21.5587 20.2302L20.1384 21.6251L20.0913 21.6713C19.4332 22.3178 18.8691 22.8719 18.3574 23.2553C17.8098 23.6656 17.2095 23.9695 16.4745 23.9695C15.7395 23.9695 15.1392 23.6657 14.5916 23.2553C14.0799 22.8719 13.5158 22.3178 12.8576 21.6714L12.8106 21.6251L11.9314 20.7617L11.9007 20.7315ZM14.0863 20.0749L14.2119 20.1982C14.9304 20.9038 15.3993 21.3614 15.7909 21.6548C16.1587 21.9304 16.3416 21.9695 16.4745 21.9695C16.6074 21.9695 16.7903 21.9304 17.1581 21.6548C17.5497 21.3614 18.0185 20.9038 18.737 20.1982L20.1573 18.8033C20.876 18.0974 21.3415 17.6373 21.6398 17.2534C21.9207 16.8917 21.9533 16.7206 21.9533 16.6066C21.9533 16.4925 21.9207 16.3214 21.6398 15.9597C21.3415 15.5758 20.876 15.1157 20.1573 14.4098L19.9788 14.2345L17.2165 16.9474L14.0863 20.0749Z" fill="#E0E0E0"/>
<ellipse rx="2.11246" ry="2.10983" transform="matrix(1 0 0.015878 0.999874 9.53133 9.16035)" fill="#E0E0E0"/>
</svg>
