<svg width="29" height="25" viewBox="0 0 29 25" fill="none" xmlns="http://www.w3.org/2000/svg">
<path d="M11.3571 19.7917C11.3571 20.8183 11.4586 21.5307 11.6633 22.0453C11.8521 22.5199 12.141 22.8597 12.627 23.1313C13.1491 23.423 13.9273 23.6505 15.1069 23.797C16.2786 23.9425 17.7717 24 19.6785 24C21.5854 24 23.0785 23.9425 24.2502 23.797C25.4298 23.6505 26.208 23.423 26.7301 23.1313C27.2161 22.8597 27.505 22.5199 27.6938 22.0453C27.8985 21.5307 28 20.8183 28 19.7917C28 18.765 27.8985 18.0526 27.6938 17.538C27.505 17.0635 27.2161 16.7236 26.7301 16.4521C26.208 16.1603 25.4298 15.9328 24.2502 15.7864C23.0785 15.6409 21.5854 15.5833 19.6785 15.5833C17.7717 15.5833 16.2786 15.6409 15.1069 15.7864C13.9273 15.9328 13.1491 16.1603 12.627 16.4521C12.141 16.7236 11.8521 17.0635 11.6633 17.538C11.4586 18.0526 11.3571 18.765 11.3571 19.7917Z" stroke="#E0E0E0" stroke-width="2" stroke-linecap="round" stroke-linejoin="round"/>
<path d="M14.4643 6.25C14.4643 9.15491 16.8042 11.5 19.6786 11.5C22.553 11.5 24.8929 9.15491 24.8929 6.25C24.8929 3.34509 22.553 1 19.6786 1C16.8042 1 14.4643 3.34509 14.4643 6.25Z" stroke="#E0E0E0" stroke-width="2"/>
<path d="M11.3929 3.125C8.90714 3.125 7.25 5.20833 7.25 7.29167C7.25 9.375 8.90714 11.4583 11.3929 11.4583" stroke="#E0E0E0" stroke-width="2" stroke-linecap="round" stroke-linejoin="round"/>
<path d="M7.11189 21.8752C3.24522 21.8752 1.0357 21.3543 1.0357 18.2293C1.0357 15.1043 3.24522 14.5835 9.32141 14.5835" stroke="#E0E0E0" stroke-width="2" stroke-linecap="round" stroke-linejoin="round"/>
</svg>
